<?xml version="1.0" standalone="no"?>
<!DOCTYPE svg PUBLIC "-//W3C//DTD SVG 20010904//EN"
 "http://www.w3.org/TR/2001/REC-SVG-20010904/DTD/svg10.dtd">
<svg version="1.0" xmlns="http://www.w3.org/2000/svg"
 width="804.782px" height="296.463px" viewBox="0 0 2000.000000 2000.000000"
 preserveAspectRatio="xMidYMid meet">

<g transform="translate(0.000000,2000.000000) scale(0.100000,-0.100000)"
fill="#000000" stroke="none">
<path d="M7522 14910 c-104 -27 -259 -111 -397 -214 -217 -163 -399 -357 -940
-1001 -197 -234 -357 -408 -446 -485 l-68 -59 122 -114 c67 -63 208 -190 312
-282 474 -419 683 -632 803 -817 20 -31 41 -57 45 -57 4 -1 46 24 92 54 171
113 334 280 387 397 12 26 25 48 29 48 4 0 21 -11 37 -25 128 -108 226 -570
263 -1240 15 -271 6 -969 -15 -1195 -57 -598 -152 -961 -265 -1011 -37 -17
-37 -20 -7 -84 84 -180 465 -339 1066 -444 332 -59 715 -91 1168 -98 l372 -6
0 35 0 34 -97 28 c-497 140 -930 468 -1207 915 -119 192 -212 433 -262 676
-28 133 -29 153 -29 390 0 196 4 270 18 343 65 340 182 615 371 872 558 759
1547 1046 2425 704 193 -75 491 -250 474 -278 -6 -10 -210 -290 -293 -401 -95
-128 -504 -684 -840 -1143 -47 -65 -91 -117 -97 -117 -10 0 -92 112 -384 527
l-75 107 -100 -70 c-54 -39 -103 -74 -108 -79 -6 -6 247 -375 464 -675 12 -16
60 -84 107 -150 47 -66 88 -121 91 -122 4 -1 63 75 132 169 69 94 166 226 215
293 114 155 453 617 608 829 239 325 383 520 438 592 l56 73 55 -57 c187 -193
356 -469 448 -729 l33 -93 35 0 35 0 -6 153 c-17 402 -80 836 -152 1052 -19
55 -30 104 -26 108 28 28 176 -58 264 -153 58 -62 117 -167 117 -207 0 -22 6
-19 83 38 238 180 492 430 807 794 155 180 161 186 277 312 l104 111 -32 59
c-88 159 -329 506 -468 673 -486 585 -955 941 -1351 1026 -51 11 -193 14 -672
14 l-607 0 -6 -47 c-25 -209 -46 -284 -107 -408 -134 -267 -347 -452 -626
-545 -239 -79 -533 -63 -763 43 -344 157 -587 502 -615 870 l-7 87 -606 -1
c-558 -1 -612 -2 -679 -19z"/>
<path d="M10411 12198 c-718 -47 -1351 -520 -1604 -1198 -188 -504 -144 -1076
118 -1541 96 -170 170 -265 319 -413 504 -500 1230 -662 1916 -429 263 89 555
283 751 498 259 285 424 647 469 1026 18 150 9 424 -19 560 -50 248 -144 481
-275 676 l-42 62 -62 -83 -62 -83 50 -87 c96 -166 148 -302 192 -496 20 -93
23 -130 23 -330 0 -178 -4 -243 -18 -310 -93 -442 -341 -817 -702 -1059 -274
-185 -591 -281 -925 -281 -911 0 -1650 737 -1650 1645 0 259 52 485 165 720
219 455 641 786 1141 895 333 72 700 35 1012 -104 l99 -44 52 70 c29 38 54 75
57 82 6 15 -124 77 -261 125 -234 83 -485 116 -744 99z"/>
<path d="M5880 7505 c-239 -49 -432 -189 -549 -396 -162 -288 -173 -769 -26
-1074 101 -208 303 -373 530 -431 97 -26 362 -26 453 -1 223 61 381 188 476
382 32 67 79 195 73 201 -4 4 -350 114 -359 114 -4 0 -12 -19 -18 -42 -21 -79
-81 -190 -129 -238 -73 -73 -146 -103 -258 -108 -119 -6 -204 19 -285 83 -143
112 -193 278 -185 605 7 257 39 362 147 471 219 221 611 140 695 -146 10 -32
17 -39 33 -37 42 6 345 81 351 87 3 3 -5 36 -18 73 -84 241 -281 408 -537 458
-93 17 -305 17 -394 -1z"/>
<path d="M7160 6550 l0 -940 180 0 180 0 0 940 0 940 -180 0 -180 0 0 -940z"/>
<path d="M10370 6550 l0 -940 180 0 180 0 0 393 c0 224 5 420 11 456 29 180
127 268 296 265 51 -1 72 -6 109 -30 96 -59 103 -111 104 -686 l0 -398 181 0
180 0 -4 513 c-3 413 -7 523 -19 567 -55 205 -210 313 -443 312 -147 0 -262
-47 -367 -150 l-48 -46 0 342 0 342 -180 0 -180 0 0 -940z"/>
<path d="M9683 7347 l-173 -102 0 -137 0 -138 -80 0 -80 0 0 -140 0 -140 80 0
80 0 0 -367 c0 -203 4 -406 10 -451 24 -208 122 -287 355 -287 102 0 225 21
263 44 10 6 9 35 -3 140 -8 74 -16 135 -18 138 -2 2 -36 -4 -76 -14 -82 -20
-113 -13 -145 30 -20 28 -21 38 -21 395 l0 367 123 3 122 3 0 139 0 139 -122
3 -123 3 0 238 c0 152 -4 237 -10 236 -5 0 -88 -47 -182 -102z"/>
<path d="M8406 6998 c-95 -11 -230 -59 -309 -112 -125 -83 -226 -236 -268
-406 -18 -72 -21 -103 -16 -215 6 -148 24 -229 74 -332 66 -137 184 -240 343
-299 313 -118 654 -32 835 209 105 139 145 263 145 446 0 139 -18 231 -64 326
-108 226 -294 356 -551 384 -52 6 -98 10 -102 10 -4 -1 -43 -6 -87 -11z m239
-321 c130 -66 195 -193 195 -382 0 -253 -114 -402 -316 -413 -72 -4 -89 -1
-136 20 -76 35 -123 80 -158 151 -64 132 -68 327 -9 464 21 50 90 128 133 150
96 50 206 54 291 10z"/>
<path d="M12402 7000 c-263 -36 -458 -229 -516 -512 -20 -99 -21 -309 -1 -403
42 -200 157 -362 309 -435 110 -52 175 -65 336 -64 129 0 154 3 225 27 147 49
259 146 327 284 23 46 39 85 37 87 -2 2 -84 17 -181 33 l-177 30 -17 -45 c-62
-164 -263 -199 -407 -72 -43 37 -87 134 -94 205 l-6 55 452 0 451 0 0 73 c0
163 -46 355 -112 464 -45 76 -150 171 -229 210 -111 55 -270 80 -397 63z m186
-285 c92 -28 159 -107 181 -213 21 -102 48 -92 -260 -92 l-271 0 7 43 c19 119
59 191 130 233 78 45 132 53 213 29z"/>
<path d="M13812 6999 c-210 -20 -354 -105 -420 -247 -38 -80 -43 -221 -12
-304 58 -156 191 -227 612 -327 171 -41 195 -52 214 -96 12 -29 13 -44 4 -69
-25 -75 -98 -108 -245 -110 -91 -1 -105 2 -158 27 -62 31 -99 72 -125 140
l-17 43 -175 -27 c-96 -15 -176 -28 -177 -28 -11 -3 2 -45 33 -109 68 -140
206 -247 374 -287 212 -50 491 -21 642 67 191 112 270 348 178 534 -65 132
-182 190 -580 287 -225 55 -282 88 -265 154 10 42 33 62 88 78 60 18 219 20
268 4 52 -18 97 -56 120 -102 12 -23 22 -43 23 -44 3 -4 330 58 335 62 8 9
-32 98 -71 156 -87 130 -224 189 -468 202 -52 3 -132 1 -178 -4z"/>
<path d="M5675 4806 c-40 -17 -65 -56 -65 -99 0 -64 37 -91 178 -127 46 -12
82 -40 82 -65 0 -9 -11 -27 -25 -40 -20 -21 -34 -25 -80 -25 -49 0 -60 4 -86
29 -16 16 -29 37 -29 45 0 18 -45 23 -55 6 -11 -18 28 -84 64 -107 41 -28 144
-32 195 -8 45 22 70 67 63 117 -9 65 -28 79 -180 123 -44 12 -61 23 -70 42
-10 23 -8 28 16 49 53 45 167 20 167 -37 0 -13 7 -19 24 -19 14 0 28 5 31 10
12 20 -29 85 -65 102 -41 21 -122 23 -165 4z"/>
<path d="M8934 4805 c-17 -8 -45 -30 -62 -49 -84 -96 -59 -275 46 -334 44 -24
129 -30 179 -11 41 15 91 67 104 108 26 77 7 193 -39 245 -45 50 -160 71 -228
41z m153 -55 c46 -28 67 -74 67 -145 -1 -103 -47 -158 -136 -159 -109 -2 -171
121 -122 243 30 75 121 104 191 61z"/>
<path d="M10660 4804 c-45 -19 -68 -41 -90 -84 -59 -116 -13 -269 93 -309 53
-20 153 -13 207 14 l50 25 0 80 0 80 -85 0 c-84 0 -85 0 -85 -25 0 -24 3 -25
60 -25 l60 0 0 -39 c0 -36 -3 -40 -40 -55 -52 -21 -113 -20 -157 1 -85 40 -98
196 -23 268 24 23 41 30 88 33 52 4 61 1 90 -23 18 -15 32 -33 32 -41 0 -14
41 -20 53 -8 3 4 -3 24 -14 46 -35 69 -152 100 -239 62z"/>
<path d="M7262 4608 l3 -203 128 -3 127 -3 0 26 0 25 -100 0 -100 0 0 180 0
180 -30 0 -30 0 2 -202z"/>
<path d="M12281 4618 c-41 -106 -76 -199 -78 -205 -4 -9 5 -13 24 -13 27 0 32
5 54 63 l25 62 84 0 85 0 21 -60 c19 -54 24 -60 53 -63 17 -2 31 1 31 6 0 7
-70 182 -157 390 -3 6 -20 12 -37 12 l-32 0 -73 -192z m138 51 c17 -44 31 -85
31 -90 0 -5 -30 -9 -66 -9 -36 0 -64 4 -62 8 2 4 16 45 33 90 16 45 30 82 31
82 1 0 16 -36 33 -81z"/>
<path d="M13870 4605 l0 -205 25 0 24 0 3 158 3 157 105 -157 c93 -139 108
-158 133 -158 l27 0 0 205 0 205 -25 0 -24 0 -3 -155 -3 -155 -103 155 c-94
141 -106 155 -133 155 l-29 0 0 -205z"/>
</g>
</svg>
